:FULLY-SPECIFIED
:FORCE-ALL-JOINTS-BE-3DOF
:DEGREES
951
root 1.12012 15.2853 32.7536 6.89835 -2.99226 364.689
lfemur 7.10342 0.854038 4.3365
ltibia -0.301177 0 0
lfoot -28.1711 -14.3209 0
ltoes -31.6874 0 0
rfemur -31.6429 -16.4847 -7.16912
rtibia 49.1805 0 0
rfoot -21.2237 4.79302 0
rtoes -42.3803 0 0
lowerback -2.17293 -0.481592 0.942905
upperback -1.41259 -0.670046 -6.83632
thorax -0.332714 -0.377077 -7.67726
lowerneck -6.46465 0.61652 4.76088
upperneck 0.826472 0.359525 3.32835
head 1.3457 0.268058 0.246613
lclavicle -7.39749e-15 3.56736e-16 0
lhumerus -59.2925 -43.9419 112.758
lradius 55.5698 0 0
lwrist 25.0471 0 0
lhand 40.0443 24.1686 0
lfingers 7.12502 0 0
lthumb 62.4294 35.0978 0
rclavicle -7.39749e-15 3.56736e-16 0
rhumerus 3.91068 -36.525 -0.221782
rradius 27.3826 0 0
rwrist -16.5239 0 0
rhand -40.8274 -51.4679 0
rfingers 7.12502 0 0
rthumb -13.7634 -801.214 0
952
root 1.10203 15.2732 32.7454 6.84653 -3.21876 364.613
lfemur 7.31495 1.03858 4.47544
ltibia -0.345739 0 0
lfoot -28.2645 -14.0403 0
ltoes -31.9231 0 0
rfemur -31.8698 -16.5445 -6.97559
rtibia 49.4059 0 0
rfoot -21.4982 4.95877 0
rtoes -42.2876 0 0
lowerback -2.12422 -0.532568 0.969431
upperback -1.3688 -0.738587 -6.75636
thorax -0.322932 -0.410472 -7.60686
lowerneck -6.3774 0.721879 4.90204
upperneck 0.773378 0.497854 3.30984
head 1.31528 0.334799 0.220918
lclavicle -5.56422e-15 1.30439e-15 0
lhumerus -59.3323 -44.0169 112.934
lradius 55.5527 0 0
lwrist 25.0536 0 0
lhand 39.828 24.0432 0
lfingers 7.12502 0 0
lthumb 62.249 35.1971 0
rclavicle -5.56422e-15 1.30439e-15 0
rhumerus 4.29447 -36.156 0.127839
rradius 27.1312 0 0
rwrist -16.3351 0 0
rhand -40.6237 -51.5731 0
rfingers 7.12502 0 0
rthumb -13.5664 -801.358 0
953
root 1.08397 15.2604 32.7359 6.77499 -3.48613 364.528
lfemur 7.5453 1.25257 4.61647
ltibia -0.345739 0 0
lfoot -28.4007 -13.7335 0
ltoes -32.1812 0 0
rfemur -32.1235 -16.543 -6.76644
rtibia 49.6602 0 0
rfoot -21.7523 5.09306 0
rtoes -42.1947 0 0
lowerback -2.07804 -0.599236 0.984367
upperback -1.31536 -0.827178 -6.66772
thorax -0.304056 -0.453559 -7.52091
lowerneck -6.27835 0.848128 5.0569
upperneck 0.721672 0.663683 3.29508
head 1.28366 0.415259 0.194964
lclavicle -3.34601e-15 2.36299e-15 0
lhumerus -59.3722 -44.1017 113.124
lradius 55.5381 0 0
lwrist 25.0755 0 0
lhand 39.5785 23.9152 0
lfingers 7.12502 0 0
lthumb 62.0409 35.3273 0
rclavicle -3.34601e-15 2.36299e-15 0
rhumerus 4.62791 -35.1077 0.448888
rradius 27.1288 0 0
rwrist -16.1281 0 0
rhand -39.9787 -51.4406 0
rfingers 7.12502 0 0
rthumb -12.9441 -801.256 0
954
root 1.0669 15.2474 32.7251 6.68677 -3.7826 364.438
lfemur 7.78365 1.4865 4.75275
ltibia -0.301177 0 0
lfoot -28.5746 -13.4154 0
ltoes -32.449 0 0
rfemur -32.3935 -16.4809 -6.55223
rtibia 49.9328 0 0
rfoot -21.9746 5.19178 0
rtoes -42.1047 0 0
lowerback -2.03614 -0.677342 0.986681
upperback -1.25489 -0.93016 -6.5745
thorax -0.27713 -0.503559 -7.42317
lowerneck -6.17345 0.98857 5.21782
upperneck 0.672948 0.848168 3.28482
head 1.25227 0.505118 0.170025
lclavicle -8.52154e-16 3.49428e-15 0
lhumerus -59.4079 -44.1908 113.319
lradius 55.5254 0 0
lwrist 25.1118 0 0
lhand 39.3058 23.7947 0
lfingers 7.12502 0 0
lthumb 61.8132 35.4879 0
rclavicle -8.52154e-16 3.49428e-15 0
rhumerus 4.89197 -33.4328 0.724533
rradius 27.3746 0 0
rwrist -15.9086 0 0
rhand -38.9201 -51.0719 0
rfingers 7.12502 0 0
rthumb -11.9233 -800.906 0
955
root 1.05159 15.2345 32.7137 6.58775 -4.09253 364.348
lfemur 8.01897 1.72839 4.87912
ltibia -0.221273 0 0
lfoot -28.7753 -13.1019 0
ltoes -32.713 0 0
rfemur -32.669 -16.3721 -6.34381
rtibia 50.2119 0 0
rfoot -22.1616 5.26047 0
rtoes -42.0184 0 0
lowerback -1.99886 -0.759921 0.977818
upperback -1.19123 -1.03844 -6.48117
thorax -0.24485 -0.556026 -7.31911
lowerneck -6.07006 1.13382 5.3766
upperneck 0.627307 1.03891 3.27885
head 1.22225 0.598237 0.147041
lclavicle 1.76108e-15 4.65917e-15 0
lhumerus -59.4345 -44.2772 113.51
lradius 55.5126 0 0
lwrist 25.1589 0 0
lhand 39.0217 23.6923 0
lfingers 7.12502 0 0
lthumb 61.5758 35.677 0
rclavicle 1.76108e-15 4.65917e-15 0
rhumerus 5.08174 -31.3092 0.948121
rradius 27.8153 0 0
rwrist -15.6812 0 0
rhand -37.5557 -50.5135 0
rfingers 7.12502 0 0
rthumb -10.6078 -800.357 0
956
root 1.03852 15.2219 32.7019 6.48664 -4.39644 364.265
lfemur 8.23999 1.96384 4.99214
ltibia -0.124466 0 0
lfoot -28.9857 -12.8095 0
ltoes -32.9585 0 0
rfemur -32.938 -16.2431 -6.1523
rtibia 50.4843 0 0
rfoot -22.3185 5.31436 0
rtoes -41.9344 0 0
lowerback -1.96508 -0.837292 0.961707
upperback -1.12945 -1.13946 -6.39255
thorax -0.211568 -0.604839 -7.21593
lowerneck -5.97703 1.27183 5.52451
upperneck 0.583354 1.21995 3.27595
head 1.19446 0.686662 0.12662
lclavicle 4.29053e-15 5.8177e-15 0
lhumerus -59.4467 -44.3528 113.688
lradius 55.4965 0 0
lwrist 25.2102 0 0
lhand 38.7402 23.6188 0
lfingers 7.12502 0 0
lthumb 61.3404 35.8908 0
rclavicle 4.29053e-15 5.8177e-15 0
rhumerus 5.20643 -29.0405 1.12318
rradius 28.3457 0 0
rwrist -15.449 0 0
rhand -36.0734 -49.8568 0
rfingers 7.12502 0 0
rthumb -9.17868 -799.704 0
957
root 1.02799 15.2099 32.6903 6.39492 -4.67098 364.195
lfemur 8.43518 2.17596 5.09005
ltibia -0.0384154 0 0
lfoot -29.1826 -12.5554 0
ltoes -33.1703 0 0
rfemur -33.188 -16.1339 -5.98906
rtibia 50.7356 0 0
rfoot -22.4588 5.37831 0
rtoes -41.8492 0 0
lowerback -1.93224 -0.897066 0.944755
upperback -1.07581 -1.21727 -6.31383
thorax -0.18329 -0.642206 -7.12254
lowerneck -5.90466 1.38784 5.65224
upperneck 0.538206 1.37177 3.27395
head 1.1695 0.760622 0.10904
lclavicle 6.4861e-15 6.929e-15 0
lhumerus -59.4384 -44.4078 113.847
lradius 55.4725 0 0
lwrist 25.2563 0 0
lhand 38.4775 23.5858 0
lfingers 7.12502 0 0
lthumb 61.1203 36.124 0
rclavicle 6.4861e-15 6.929e-15 0
rhumerus 5.2894 -27.0555 1.26342
rradius 28.8084 0 0
rwrist -15.214 0 0
rhand -34.7409 -49.2382 0
rfingers 7.12502 0 0
rthumb -7.89398 -799.088 0
958
root 1.02002 15.1983 32.6795 6.32691 -4.88893 364.145
lfemur 8.5928 2.34544 5.1728
ltibia 2.54444e-14 0 0
lfoot -29.3367 -12.3578 0
ltoes -33.3322 0 0
rfemur -33.4057 -16.097 -5.86574
rtibia 50.9501 0 0
rfoot -22.6043 5.48685 0
rtoes -41.7572 0 0
lowerback -1.89635 -0.924138 0.93585
upperback -1.03779 -1.25243 -6.25055
thorax -0.167679 -0.658661 -7.04958
lowerneck -5.8647 1.46443 5.74994
upperneck 0.487481 1.47132 3.26968
head 1.14767 0.808531 0.0942452
lclavicle 8.05078e-15 7.95139e-15 0
lhumerus -59.4032 -44.4312 113.977
lradius 55.4349 0 0
lwrist 25.2852 0 0
lhand 38.2516 23.605 0
lfingers 7.12502 0 0
lthumb 60.9307 36.3697 0
rclavicle 8.05078e-15 7.95139e-15 0
rhumerus 5.36812 -25.9086 1.39272
rradius 28.9941 0 0
rwrist -14.9766 0 0
rhand -33.906 -48.839 0
rfingers 7.12502 0 0
rthumb -7.08878 -798.7 0
959
root 1.01932 15.1968 32.6782 6.32095 -4.91111 364.141
lfemur 8.60875 2.36294 5.18153
ltibia 2.51888e-14 0 0
lfoot -29.3522 -12.3393 0
ltoes -33.3469 0 0
rfemur -33.4308 -16.1004 -5.85456
rtibia 50.974 0 0
rfoot -22.6233 5.50655 0
rtoes -41.7442 0 0
lowerback -1.89144 -0.923715 0.935458
upperback -1.0348 -1.25185 -6.24424
thorax -0.167179 -0.658276 -7.0425
lowerneck -5.86349 1.46974 5.75887
upperneck 0.479907 1.47811 3.26893
head 1.14513 0.811686 0.0927137
lclavicle 8.18712e-15 8.10027e-15 0
lhumerus -59.3948 -44.4295 113.99
lradius 55.4281 0 0
lwrist 25.287 0 0
lhand 38.2263 23.6148 0
lfingers 7.12502 0 0
lthumb 60.9094 36.4045 0
rclavicle 8.18712e-15 8.10027e-15 0
rhumerus 5.37622 -25.8518 1.40743
rradius 28.989 0 0
rwrist -14.9457 0 0
rhand -33.8512 -48.8101 0
rfingers 7.12502 0 0
rthumb -7.03593 -798.673 0
